<?xml version="1.0" standalone="no"?>
<!DOCTYPE svg PUBLIC "-//W3C//DTD SVG 20010904//EN"
 "http://www.w3.org/TR/2001/REC-SVG-20010904/DTD/svg10.dtd">
<svg version="1.0" xmlns="http://www.w3.org/2000/svg"
 width="700.000000pt" height="943.000000pt" viewBox="0 0 700.000000 943.000000"
 preserveAspectRatio="xMidYMid meet">
<metadata>
Created by potrace 1.16, written by Peter Selinger 2001-2019
</metadata>
<g transform="translate(0.000000,943.000000) scale(0.100000,-0.100000)"
fill="#000000" stroke="none">
<path d="M0 4715 l0 -4715 3500 0 3500 0 0 4715 0 4715 -3500 0 -3500 0 0
-4715z m3764 3745 c94 -29 124 -59 141 -140 7 -36 16 -72 19 -80 3 -8 2 -21
-2 -28 -11 -17 -42 -5 -35 14 4 10 -3 14 -21 14 -14 0 -26 5 -26 10 0 6 -15
10 -34 10 -19 0 -38 5 -41 11 -4 6 -21 9 -39 8 -17 -2 -53 1 -79 5 -30 5 -52
5 -58 -1 -7 -7 21 -12 78 -17 48 -3 92 -11 97 -16 12 -12 14 -240 3 -282 -4
-16 -14 -28 -22 -28 -20 0 -19 -16 1 -24 10 -4 14 -14 11 -26 -7 -28 21 -40
53 -24 15 9 19 14 9 14 -8 0 -24 6 -34 14 -18 13 -18 15 -2 39 13 21 17 49 17
129 0 57 -4 120 -9 141 -5 20 -5 39 -1 42 13 8 40 -6 40 -20 0 -8 7 -21 16
-30 45 -44 71 -276 38 -324 -20 -27 -20 -55 0 -234 9 -77 15 -155 15 -175 l-2
-37 -7 35 c-10 47 -10 44 -14 -180 -2 -107 -4 -211 -5 -230 l-1 -35 -25 36
c-44 67 -55 60 -55 -36 0 -78 2 -85 20 -85 16 0 20 7 20 37 0 37 0 37 16 15 9
-13 13 -29 11 -36 -3 -8 0 -20 6 -27 10 -10 9 -11 -3 -2 -11 9 -19 8 -33 -1
-21 -16 -22 -26 -1 -26 14 0 14 -1 0 -16 -20 -19 -20 -24 0 -24 8 0 12 5 9 10
-3 6 -1 10 4 10 16 0 14 -8 -10 -41 -19 -28 -20 -31 -5 -48 9 -10 16 -27 16
-39 0 -13 6 -22 16 -22 8 0 13 4 9 9 -3 5 -1 12 5 16 5 3 10 -1 10 -9 0 -8 -4
-18 -10 -21 -5 -3 -10 -11 -10 -16 0 -6 3 -8 8 -5 4 2 12 -7 19 -20 9 -20 8
-24 -4 -24 -9 0 -11 -5 -6 -12 4 -7 8 -17 10 -23 1 -5 5 -20 9 -32 5 -20 3
-23 -20 -23 -18 0 -24 -4 -20 -15 4 -8 14 -15 23 -15 15 -1 15 -2 0 -13 -15
-11 -14 -15 7 -47 31 -44 31 -58 -1 -52 -15 2 -25 0 -25 -7 0 -6 8 -11 18 -12
10 0 12 -3 4 -6 -16 -6 -44 -61 -38 -72 3 -5 30 -12 60 -15 l54 -7 7 -75 c4
-41 5 -98 3 -125 -5 -45 -10 -55 -53 -94 l-48 -42 25 -17 c14 -9 30 -34 36
-55 10 -31 20 -42 54 -57 24 -10 62 -38 86 -63 31 -32 42 -39 42 -26 0 16 3
16 25 -5 30 -28 33 -15 5 20 -25 32 -25 35 5 36 16 1 26 -5 30 -17 4 -10 12
-25 19 -31 15 -16 69 -95 85 -125 9 -19 9 -22 -3 -17 -20 8 -29 -12 -16 -36
14 -26 30 -26 37 1 5 17 9 14 24 -21 39 -86 71 -187 74 -230 2 -24 8 -46 14
-48 14 -5 14 -72 1 -72 -6 0 -12 6 -14 13 -2 6 -13 41 -25 77 -12 36 -21 75
-21 88 0 28 -17 62 -30 62 -15 0 -12 -33 4 -55 20 -30 36 -93 24 -97 -6 -2 -3
-19 7 -43 22 -54 28 -186 14 -352 -6 -76 -12 -172 -12 -213 -2 -61 -6 -81 -24
-103 -33 -42 -48 -120 -48 -252 0 -145 7 -184 43 -227 l27 -32 3 -1115 c3
-1186 7 -1376 32 -1376 8 0 18 11 22 25 5 18 6 13 3 -15 -3 -22 -5 -48 -5 -57
0 -11 -5 -15 -15 -12 -9 4 -15 0 -15 -10 0 -9 7 -16 16 -16 35 0 -6 -125 -44
-138 -9 -3 -12 18 -12 72 0 52 4 76 12 76 8 0 8 3 3 9 -6 6 -33 6 -65 2 -30
-5 -43 -9 -27 -10 15 0 27 -5 27 -10 0 -17 -29 -33 -50 -26 -11 4 -20 2 -20
-4 0 -14 36 -14 62 0 11 6 22 9 24 6 6 -6 -111 -63 -156 -76 l-35 -11 40 4
c22 2 48 7 58 11 13 5 17 2 17 -14 0 -13 6 -21 17 -21 9 0 13 -3 9 -7 -4 -4
-34 -8 -67 -9 -33 -1 -63 -4 -66 -8 -13 -12 7 -19 55 -18 41 1 48 -1 48 -18 0
-15 -12 -23 -46 -34 -75 -24 -100 -27 -100 -15 0 12 -51 3 -60 -10 -8 -13
-138 -40 -242 -51 -149 -15 -468 -12 -610 6 -136 18 -181 32 -108 35 36 1 30
3 -30 10 -41 4 -88 11 -103 13 -17 4 -26 2 -22 -4 7 -11 -25 -11 -70 0 l-30 7
25 11 c14 6 19 11 13 11 -20 1 -15 19 7 26 36 11 11 25 -46 25 -30 0 -54 5
-54 10 0 6 5 10 11 10 5 0 7 5 3 11 -7 12 45 6 83 -8 11 -4 14 -2 9 5 -4 6
-23 14 -44 18 -20 4 -59 17 -87 29 l-50 22 53 8 c49 7 74 25 33 25 -25 0 -37
18 -17 26 25 10 10 21 -30 22 -20 1 -42 7 -50 13 -8 6 -21 9 -29 5 -9 -3 -15
0 -15 9 0 17 -16 20 -25 5 -3 -6 1 -17 9 -25 10 -11 13 -26 9 -46 -3 -17 -1
-34 4 -38 15 -9 26 -61 13 -61 -14 0 -32 47 -35 91 -1 20 -5 41 -8 45 -3 5 -8
44 -11 87 -5 61 -3 78 7 74 6 -2 12 -19 13 -38 0 -19 6 -43 12 -54 9 -16 10
-12 5 21 -4 35 -2 42 15 46 20 6 21 10 15 364 l-5 359 108 115 107 115 -99
-97 c-55 -54 -103 -98 -107 -98 -4 0 -7 144 -7 319 l0 320 23 7 c12 5 25 7 29
6 4 -1 20 3 35 9 15 6 37 12 48 14 35 5 50 10 58 20 7 10 8 244 1 257 -6 9
-59 -20 -95 -50 -15 -13 -41 -53 -59 -88 -18 -36 -34 -64 -35 -62 -8 7 -10
338 -2 338 8 0 9 -12 9 -74 1 -36 2 -38 14 -20 65 92 109 132 140 126 19 -4
36 25 26 45 -5 10 -9 34 -11 53 -4 78 -66 94 -121 30 -37 -43 -65 -106 -50
-115 10 -6 2 -35 -9 -35 -9 0 -13 1258 -4 1263 5 3 5 47 1 99 -10 148 -9 336
2 343 6 3 10 24 10 45 0 21 4 50 10 64 7 18 6 26 -1 26 -13 0 -11 5 26 108 23
64 59 138 75 152 3 3 13 21 24 40 24 44 96 120 114 120 7 0 10 -5 7 -10 -4 -6
31 14 77 44 l83 54 17 66 c19 76 17 92 -18 100 -13 4 -24 13 -24 21 0 8 -4 15
-9 15 -5 0 -11 14 -15 31 -3 17 -10 28 -16 24 -5 -3 -7 -19 -4 -35 4 -16 -2
-52 -11 -82 -21 -64 -18 -60 -39 -52 -14 5 -15 9 -5 15 8 4 14 25 15 46 3 66
29 204 39 206 6 1 13 -18 16 -43 l6 -45 1 46 c4 97 13 137 36 144 11 4 24 7
29 6 14 -2 7 20 -9 26 -8 3 -13 12 -9 21 3 8 -2 20 -13 28 -15 10 -17 21 -12
76 3 34 5 95 4 133 -1 39 2 102 8 140 9 58 14 71 30 71 10 0 18 -4 18 -9 0 -4
5 -5 11 -1 8 5 6 10 -7 18 -24 14 -27 44 -4 51 10 3 20 19 24 35 4 21 11 30
25 30 33 0 51 11 51 32 0 17 -5 19 -30 13 l-30 -7 0 61 c0 45 -4 61 -14 61
-14 0 -25 -47 -27 -115 0 -22 -3 -34 -6 -27 -2 6 -12 12 -20 12 -14 0 -14 2 0
18 20 22 22 42 5 42 -7 0 -5 5 5 11 21 12 23 49 2 49 -12 0 -15 13 -15 56 0
34 -4 53 -10 49 -5 -3 -10 -2 -10 4 0 5 5 13 11 17 7 4 9 28 5 68 -4 41 -3 54
3 41 8 -16 10 -17 10 -3 1 9 -3 20 -9 23 -12 7 -13 52 -2 59 4 2 6 36 5 75 -2
55 0 71 11 71 18 0 27 69 31 235 4 130 4 130 -21 142 -27 12 -32 2 -9 -17 8
-7 17 -27 21 -46 7 -40 -4 -184 -15 -184 -4 0 -3 39 1 86 7 79 6 88 -15 116
-19 25 -22 42 -21 111 1 101 16 155 51 195 16 17 34 38 41 46 17 22 36 21 27
-1 -13 -31 -18 -248 -6 -270 11 -22 58 -36 80 -23 10 5 7 9 -12 14 -40 10 -56
73 -50 196 5 78 10 103 22 109 27 14 114 23 237 23 101 1 113 3 93 14 -17 9
-49 11 -106 7 l-83 -6 0 52 c0 48 -15 71 -22 34 -3 -15 -4 -15 -19 0 -16 15
-17 15 -22 -5 -8 -29 -1 -38 29 -38 17 0 24 -5 24 -20 0 -23 -36 -35 -79 -27
-15 3 -33 1 -39 -5 -6 -6 -30 -11 -52 -10 -25 1 -39 -2 -35 -8 3 -6 -4 -10
-17 -10 -36 0 -71 -29 -64 -53 3 -11 1 -16 -4 -11 -15 16 -23 64 -10 64 8 0
10 11 5 33 -5 29 -4 30 8 15 17 -22 27 -23 27 -3 0 7 -7 18 -16 23 -39 22 23
102 104 133 78 29 178 38 368 33 126 -3 176 -8 228 -24z m128 -282 c-6 -6 -15
-8 -19 -4 -4 4 -1 11 7 16 19 12 27 3 12 -12z m-805 -565 c-3 -10 -5 -4 -5 12
0 17 2 24 5 18 2 -7 2 -21 0 -30z m822 -307 c1 -63 -6 -37 -12 44 -4 56 -3 65
3 35 5 -22 9 -58 9 -79z m-852 -88 c-3 -7 -5 -2 -5 12 0 14 2 19 5 13 2 -7 2
-19 0 -25z m860 -30 c-2 -13 -4 -5 -4 17 -1 22 1 32 4 23 2 -10 2 -28 0 -40z
m10 -95 c-3 -10 -5 -2 -5 17 0 19 2 27 5 18 2 -10 2 -26 0 -35z m-880 -15 c-3
-8 -6 -5 -6 6 -1 11 2 17 5 13 3 -3 4 -12 1 -19z m890 -70 c-3 -8 -6 -5 -6 6
-1 11 2 17 5 13 3 -3 4 -12 1 -19z m23 -216 c0 -21 -2 -24 -10 -12 -13 20 -13
53 0 45 6 -3 10 -18 10 -33z m10 -118 c0 -14 -4 -22 -10 -19 -5 3 -10 17 -10
31 0 14 4 22 10 19 6 -3 10 -17 10 -31z m-3 -76 c-3 -8 -6 -5 -6 6 -1 11 2 17
5 13 3 -3 4 -12 1 -19z m13 -39 c0 -11 -4 -17 -10 -14 -5 3 -10 13 -10 21 0 8
5 14 10 14 6 0 10 -9 10 -21z m-3 -61 c-3 -8 -6 -5 -6 6 -1 11 2 17 5 13 3 -3
4 -12 1 -19z m-57 -24 c0 -3 -7 -1 -15 6 -8 7 -15 17 -15 22 0 5 7 3 15 -6 8
-8 15 -18 15 -22z m70 -46 c0 -19 -2 -20 -10 -8 -13 19 -13 30 0 30 6 0 10
-10 10 -22z m24 -260 c11 -43 7 -78 -8 -72 -20 8 -24 23 -19 62 6 37 18 42 27
10z m24 -144 c7 -26 10 -49 8 -52 -12 -12 -35 10 -46 43 -10 31 -10 39 1 46
22 14 24 12 37 -37z m-1095 -130 c-2 -7 -13 -14 -24 -17 -11 -3 -17 -11 -14
-19 5 -15 -12 -38 -43 -55 -35 -21 -39 -14 -7 12 17 14 24 25 17 25 -8 0 -4
12 10 35 16 23 30 34 44 33 12 -1 20 -7 17 -14z m-93 -118 c0 -3 -4 -8 -10
-11 -5 -3 -10 -1 -10 4 0 6 5 11 10 11 6 0 10 -2 10 -4z m-42 -77 c-18 -22
-40 -54 -48 -70 -13 -24 -58 -59 -76 -59 -1 0 17 30 42 68 24 37 44 70 44 74
0 4 6 5 13 2 7 -2 21 2 32 10 31 23 29 19 -7 -25z m-113 -181 c-4 -18 -17 -49
-29 -68 -12 -19 -28 -64 -35 -100 -7 -36 -18 -68 -24 -72 -6 -4 -8 -10 -4 -14
4 -4 3 -12 -2 -18 -16 -21 -20 -55 -6 -49 19 7 7 -35 -17 -59 -19 -19 -19 -19
-14 14 3 18 8 51 11 73 9 82 65 271 85 285 3 3 9 13 13 23 12 31 29 19 22 -15z
m-104 -482 c-6 -83 -28 -59 -30 32 -1 41 0 42 16 26 12 -11 16 -29 14 -58z
m29 -357 c0 -44 -4 -78 -8 -75 -7 4 -9 142 -3 154 7 14 11 -12 11 -79z m-33
-1 c-2 -13 -4 -3 -4 22 0 25 2 35 4 23 2 -13 2 -33 0 -45z m33 -119 c0 -11 -4
-18 -10 -14 -5 3 -7 12 -3 20 7 21 13 19 13 -6z m1735 -31 c-8 -21 -12 -308
-5 -308 4 0 7 -17 6 -37 -1 -21 3 -42 9 -46 6 -5 2 -7 -10 -5 -51 8 -77 223
-40 333 16 45 32 75 41 75 2 0 1 -6 -1 -12z m-1735 -144 c0 -8 -5 -12 -10 -9
-6 4 -8 11 -5 16 9 14 15 11 15 -7z m1735 -282 c-3 -3 -11 0 -18 7 -9 10 -8
11 6 5 10 -3 15 -9 12 -12z m62 -1284 c-3 -7 -5 -2 -5 12 0 14 2 19 5 13 2 -7
2 -19 0 -25z m0 -360 c-3 -8 -6 -5 -6 6 -1 11 2 17 5 13 3 -3 4 -12 1 -19z m0
-95 c-3 -10 -5 -2 -5 17 0 19 2 27 5 18 2 -10 2 -26 0 -35z m-1832 -673 c3 -5
1 -10 -4 -10 -6 0 -11 5 -11 10 0 6 2 10 4 10 3 0 8 -4 11 -10z m160 -388 c-3
-3 -11 0 -18 7 -9 10 -8 11 6 5 10 -3 15 -9 12 -12z"/>
<path d="M3220 8382 c0 -7 -8 -12 -17 -10 -25 4 -30 -42 -7 -59 30 -22 44 -16
44 20 0 17 -5 39 -10 47 -7 11 -10 11 -10 2z"/>
<path d="M3456 8371 c-3 -4 -17 -6 -31 -3 -29 5 -36 -22 -9 -32 26 -10 54 3
54 25 0 20 -5 24 -14 10z"/>
<path d="M3118 8363 c-27 -7 -25 -69 2 -76 18 -5 20 0 20 39 0 24 -1 43 -2 43
-2 -1 -11 -3 -20 -6z"/>
<path d="M3520 8359 c0 -14 38 -29 54 -23 28 11 17 29 -19 30 -19 0 -35 -3
-35 -7z"/>
<path d="M3757 8364 c-8 -9 -9 -48 -1 -56 14 -14 44 6 44 29 0 18 -4 24 -14
20 -8 -3 -16 -1 -18 4 -2 6 -7 7 -11 3z"/>
<path d="M3640 8346 c0 -20 38 -30 55 -16 24 20 17 30 -20 30 -24 0 -35 -5
-35 -14z"/>
<path d="M3840 8320 c0 -21 4 -30 13 -27 6 2 12 14 12 27 0 13 -6 25 -12 28
-9 2 -13 -7 -13 -28z"/>
<path d="M3867 7923 c-19 -50 -14 -70 9 -39 12 16 21 86 11 86 -1 0 -10 -21
-20 -47z"/>
<path d="M3330 7953 c-14 -3 -29 -9 -35 -15 -7 -7 7 -9 45 -4 30 3 111 6 180
7 78 1 116 4 100 9 -26 8 -247 11 -290 3z"/>
<path d="M3160 7888 l-35 -20 31 6 c28 4 31 3 27 -15 -7 -24 17 -56 28 -38 4
7 3 21 -2 30 -6 12 -5 19 4 23 9 5 9 7 -1 12 -6 3 -10 10 -6 15 8 13 -6 9 -46
-13z"/>
<path d="M3250 7810 c8 -5 26 -10 39 -10 32 0 24 6 -19 14 -25 4 -31 3 -20 -4z"/>
<path d="M3578 7803 c7 -3 16 -2 19 1 4 3 -2 6 -13 5 -11 0 -14 -3 -6 -6z"/>
<path d="M3786 7697 c3 -55 10 -109 15 -120 11 -26 1 115 -12 178 -6 27 -7 8
-3 -58z"/>
<path d="M3176 7725 c-9 -26 -7 -32 5 -12 6 10 9 21 6 23 -2 3 -7 -2 -11 -11z"/>
<path d="M3155 7636 c-4 -24 -5 -52 -2 -62 3 -12 5 -8 6 11 0 17 5 45 10 63 5
17 6 32 1 32 -5 0 -12 -20 -15 -44z"/>
<path d="M3307 7258 c-38 -21 -10 -70 31 -53 15 7 14 9 -6 14 -25 7 -31 26 -8
26 21 0 29 12 13 18 -7 3 -21 1 -30 -5z"/>
<path d="M3384 7256 c-10 -26 1 -51 24 -54 25 -4 27 1 12 29 -7 13 -7 19 0 19
5 0 10 5 10 10 0 16 -40 12 -46 -4z"/>
<path d="M3518 7258 c7 -7 12 -20 12 -30 0 -10 5 -18 10 -18 6 0 10 6 10 14 0
8 3 21 6 30 5 12 0 16 -22 16 -22 0 -25 -3 -16 -12z"/>
<path d="M3606 7262 c-3 -3 -6 -18 -6 -34 0 -24 4 -28 26 -28 26 0 26 1 10 24
-14 23 -14 25 2 28 14 3 13 5 -5 10 -12 3 -24 3 -27 0z"/>
<path d="M3247 7253 c-11 -10 -8 -51 3 -58 6 -4 10 8 10 29 0 37 -2 41 -13 29z"/>
<path d="M3690 7241 c-16 -31 -12 -38 20 -43 35 -5 35 -6 15 32 -18 35 -21 36
-35 11z"/>
<path d="M3170 7220 c0 -5 5 -10 10 -10 6 0 10 5 10 10 0 6 -4 10 -10 10 -5 0
-10 -4 -10 -10z"/>
<path d="M3800 7214 c0 -8 5 -12 10 -9 6 3 10 10 10 16 0 5 -4 9 -10 9 -5 0
-10 -7 -10 -16z"/>
<path d="M3255 7101 l-40 -6 -3 -77 -3 -78 33 0 c52 0 78 11 78 31 0 13 -9 19
-37 22 l-38 3 33 8 c41 11 43 36 2 36 -41 0 -38 18 5 26 25 4 35 11 35 25 0
11 -6 18 -12 18 -7 -1 -31 -5 -53 -8z"/>
<path d="M3338 7043 c-4 -81 -2 -93 23 -93 12 0 19 7 19 20 0 14 7 20 21 20
53 0 83 52 54 96 -13 20 -24 24 -64 24 l-49 0 -4 -67z m82 22 c15 -18 5 -35
-21 -35 -12 0 -19 7 -19 18 0 33 20 42 40 17z"/>
<path d="M3482 7033 c3 -65 6 -78 21 -81 13 -3 17 4 17 31 0 31 3 34 30 34 27
0 30 -3 30 -34 0 -26 4 -33 20 -33 18 0 20 7 20 80 0 73 -2 80 -20 80 -17 0
-20 -7 -20 -41 0 -36 -2 -40 -15 -29 -12 10 -18 10 -30 0 -13 -11 -15 -7 -15
29 0 35 -3 41 -20 41 -19 0 -21 -5 -18 -77z"/>
<path d="M3663 7043 c-12 -32 -25 -66 -29 -76 -6 -15 -3 -18 16 -15 17 2 27
14 38 46 7 23 17 42 21 42 4 0 12 -20 19 -45 11 -41 34 -66 48 -52 3 3 -7 40
-22 81 -23 60 -33 76 -49 76 -15 0 -25 -14 -42 -57z"/>
<path d="M3464 6873 c-9 -26 -23 -63 -31 -82 -17 -43 -17 -43 9 -39 17 2 26
15 37 51 8 26 17 47 21 47 3 0 14 -22 24 -50 13 -36 23 -50 37 -50 24 0 24 -1
-10 90 -21 57 -32 76 -48 78 -17 3 -24 -6 -39 -45z"/>
<path d="M3560 6908 c0 -7 10 -29 22 -48 12 -19 24 -53 27 -75 5 -31 10 -40
26 -40 16 0 19 6 17 28 -2 18 8 46 28 78 16 27 30 51 30 54 0 3 -11 5 -25 5
-17 0 -29 -8 -37 -25 -14 -32 -19 -31 -40 5 -17 30 -48 41 -48 18z"/>
<path d="M3282 6828 l3 -83 50 3 c55 4 92 32 79 61 -4 9 -7 25 -6 36 1 59 -5
65 -69 65 l-60 0 3 -82z m83 32 c-3 -5 -15 -10 -26 -10 -10 0 -19 5 -19 10 0
6 12 10 26 10 14 0 23 -4 19 -10z m5 -55 c0 -9 -9 -15 -25 -15 -24 0 -32 10
-18 23 12 13 43 7 43 -8z"/>
<path d="M3812 6690 c0 -14 2 -19 5 -12 2 6 2 18 0 25 -3 6 -5 1 -5 -13z"/>
<path d="M3094 6686 c-3 -7 -1 -29 4 -47 7 -24 10 -28 11 -12 1 12 7 24 14 27
8 3 7 8 -6 16 -9 6 -15 15 -12 21 4 5 4 9 0 9 -3 0 -8 -6 -11 -14z"/>
<path d="M3290 6471 c0 -6 5 -13 10 -16 6 -3 10 1 10 9 0 9 -4 16 -10 16 -5 0
-10 -4 -10 -9z"/>
<path d="M3920 6276 c0 -9 5 -16 10 -16 6 0 10 4 10 9 0 6 -4 13 -10 16 -5 3
-10 -1 -10 -9z"/>
<path d="M3047 6243 c-4 -3 -7 -17 -7 -30 0 -33 24 -24 28 10 3 26 -7 35 -21
20z"/>
<path d="M3076 6092 c-2 -4 -1 -14 5 -22 5 -8 9 -13 10 -10 0 3 2 13 4 23 3
17 -10 24 -19 9z"/>
<path d="M3795 6010 c-3 -5 -1 -18 4 -27 10 -17 10 -17 11 0 0 9 7 17 15 17 8
0 15 5 15 10 0 13 -37 13 -45 0z"/>
<path d="M3357 5833 c-4 -3 -7 -11 -7 -17 0 -6 5 -5 12 2 6 6 9 14 7 17 -3 3
-9 2 -12 -2z"/>
<path d="M2895 5720 c-3 -5 -1 -10 4 -10 6 0 11 5 11 10 0 6 -2 10 -4 10 -3 0
-8 -4 -11 -10z"/>
<path d="M4165 5670 c4 -6 11 -8 16 -5 14 9 11 15 -7 15 -8 0 -12 -5 -9 -10z"/>
<path d="M2790 5614 c0 -8 5 -12 10 -9 6 3 10 10 10 16 0 5 -4 9 -10 9 -5 0
-10 -7 -10 -16z"/>
<path d="M2770 5515 c0 -8 2 -15 4 -15 2 0 6 7 10 15 3 8 1 15 -4 15 -6 0 -10
-7 -10 -15z"/>
<path d="M2737 5514 c-4 -4 -7 -14 -7 -23 0 -11 3 -12 11 -4 6 6 10 16 7 23
-2 6 -7 8 -11 4z"/>
<path d="M4250 5475 c0 -8 5 -15 10 -15 6 0 10 7 10 15 0 8 -4 15 -10 15 -5 0
-10 -7 -10 -15z"/>
<path d="M2690 5404 c0 -8 5 -12 10 -9 6 3 10 10 10 16 0 5 -4 9 -10 9 -5 0
-10 -7 -10 -16z"/>
<path d="M2743 5385 c-8 -22 6 -33 17 -15 13 20 12 30 0 30 -6 0 -13 -7 -17
-15z"/>
<path d="M4210 5376 c0 -9 5 -16 10 -16 6 0 10 4 10 9 0 6 -4 13 -10 16 -5 3
-10 -1 -10 -9z"/>
<path d="M2780 5308 c0 -19 2 -20 10 -8 13 19 13 30 0 30 -5 0 -10 -10 -10
-22z"/>
<path d="M4270 5021 c0 -6 5 -13 10 -16 6 -3 10 1 10 9 0 9 -4 16 -10 16 -5 0
-10 -4 -10 -9z"/>
<path d="M4315 4879 c-7 -33 5 -56 24 -45 12 8 14 36 5 60 -10 25 -22 19 -29
-15z"/>
<path d="M2990 4525 c0 -19 5 -25 23 -24 21 0 21 1 2 9 l-20 9 20 1 20 1 -20
9 c-19 8 -19 9 1 9 14 1 24 -7 27 -19 3 -13 13 -20 29 -19 17 1 18 3 6 6 -10
2 -18 12 -18 22 0 12 -9 18 -35 19 -31 2 -35 0 -35 -23z"/>
<path d="M3100 4525 c0 -21 4 -25 28 -24 27 2 27 2 2 7 -23 4 -24 5 -5 13 l20
8 -20 1 c-17 2 -16 3 5 10 l25 8 -27 1 c-23 1 -28 -3 -28 -24z"/>
<path d="M3160 4524 c0 -15 4 -23 11 -19 6 4 8 13 5 21 -3 8 1 14 10 14 8 0
13 -4 10 -8 -2 -4 4 -13 15 -20 11 -7 19 -8 19 -2 0 14 27 12 33 -2 3 -7 5 1
5 17 0 17 -2 24 -5 18 -5 -14 -33 -18 -33 -5 0 5 -16 9 -35 10 -31 1 -35 -1
-35 -24z"/>
<path d="M3293 4533 c-3 -10 -7 -20 -9 -23 -1 -3 11 -5 27 -5 33 0 33 0 19 26
-13 24 -29 24 -37 2z"/>
<path d="M3351 4523 c0 -23 2 -24 8 -10 6 17 8 17 20 3 18 -22 31 -20 31 4 0
28 30 26 31 -2 1 -21 2 -21 6 -3 3 11 10 23 17 27 6 4 -5 8 -26 8 -20 0 -38
-6 -41 -12 -4 -10 -7 -10 -18 0 -20 19 -29 14 -28 -15z"/>
<path d="M3500 4525 c0 -25 2 -25 64 -23 62 3 63 4 53 26 -12 27 -25 28 -43 5
-13 -17 -13 -17 -14 0 0 12 -8 17 -30 17 -25 0 -30 -4 -30 -25z"/>
<path d="M3638 4522 c11 -17 17 -21 20 -11 3 8 9 19 13 25 6 7 -1 11 -20 11
-29 0 -29 -1 -13 -25z"/>
<path d="M3710 4525 c0 -21 5 -25 28 -24 23 0 24 1 7 8 l-20 8 20 5 20 6 -20
2 -20 1 20 9 c18 8 17 9 -7 9 -23 1 -28 -3 -28 -24z"/>
<path d="M3772 4525 c0 -16 2 -22 5 -12 2 9 2 23 0 30 -3 6 -5 -1 -5 -18z"/>
<path d="M3795 4540 c-3 -6 2 -13 11 -17 16 -6 16 -7 -2 -14 -16 -6 -15 -8 9
-8 18 -1 27 4 27 14 0 8 -8 15 -17 16 -15 0 -15 2 2 9 19 8 19 9 -2 9 -12 1
-25 -4 -28 -9z"/>
<path d="M3856 4542 c7 -4 14 -16 17 -27 4 -19 5 -19 6 2 0 12 7 24 14 26 6 3
-1 6 -18 6 -16 0 -25 -3 -19 -7z"/>
<path d="M3910 4525 c0 -21 5 -25 28 -24 19 1 21 3 8 6 -15 4 -16 7 -5 14 12
7 12 9 -1 10 -10 0 -8 3 5 9 18 8 17 9 -7 9 -23 1 -28 -3 -28 -24z"/>
<path d="M3970 4525 c0 -19 5 -25 23 -24 21 0 21 1 2 8 l-20 8 20 5 20 6 -20
2 -20 1 20 9 c19 8 19 9 -2 9 -18 1 -23 -5 -23 -24z"/>
<path d="M3024 4359 c-3 -5 -2 -9 3 -9 4 0 22 -11 38 -25 21 -18 24 -23 10
-18 -11 3 -29 12 -40 20 -11 7 -33 13 -50 13 l-30 -1 30 -13 c41 -17 15 -31
-31 -16 -35 12 -62 6 -30 -6 31 -12 16 -25 -21 -19 l-38 6 28 -16 c38 -22 27
-31 -12 -11 -38 20 -61 21 -35 1 17 -13 16 -13 -16 -4 -83 25 -104 28 -89 14
8 -7 38 -25 66 -40 46 -23 57 -26 84 -16 18 6 41 11 53 10 14 -1 8 -5 -16 -13
l-38 -11 33 -13 c17 -7 39 -17 49 -22 28 -15 147 -33 179 -26 30 6 72 -9 101
-36 23 -22 55 -37 100 -49 56 -14 151 -29 156 -24 2 2 -6 44 -18 93 -18 76
-28 96 -65 138 -24 27 -47 45 -51 41 -4 -4 -15 0 -24 8 -10 9 -28 18 -40 20
-13 2 -37 9 -54 14 -42 13 -225 21 -232 10z m16 -133 c0 -3 -4 -8 -10 -11 -5
-3 -10 -1 -10 4 0 6 5 11 10 11 6 0 10 -2 10 -4z m425 -136 c10 -11 16 -20 13
-20 -3 0 -13 9 -23 20 -10 11 -16 20 -13 20 3 0 13 -9 23 -20z"/>
<path d="M3725 4081 l-40 -19 40 -4 40 -5 -47 -1 c-27 -1 -48 -4 -48 -7 0 -13
107 -113 128 -120 13 -4 42 -38 72 -84 27 -42 61 -88 75 -101 14 -13 25 -28
25 -33 0 -6 26 -38 58 -71 48 -52 62 -61 92 -61 31 0 35 -4 40 -30 5 -29 6
-29 18 15 19 72 9 185 -22 250 -119 246 -154 279 -305 286 -69 3 -94 0 -126
-15z"/>
<path d="M4224 4023 c-32 -38 -43 -54 -25 -38 34 31 96 105 88 105 -2 0 -31
-30 -63 -67z"/>
<path d="M3067 3988 c-9 -20 -17 -45 -17 -55 0 -10 -4 -23 -9 -28 -13 -13 -17
-94 -7 -124 6 -18 5 -22 -5 -16 -9 6 -10 3 -4 -11 13 -33 42 -108 49 -129 6
-17 5 -17 -11 3 -59 76 -56 73 -79 54 -14 -10 -24 -33 -27 -59 -4 -36 -2 -43
12 -43 41 0 79 -22 92 -53 21 -52 33 -52 39 1 l5 47 72 0 c40 0 75 4 79 8 10
10 -30 79 -53 92 -27 15 -33 26 -33 67 0 32 -8 45 -55 92 -30 29 -55 49 -55
43 0 -6 -3 -8 -6 -5 -9 10 8 78 18 72 5 -3 8 0 7 7 -1 8 1 22 5 31 16 35 -1
40 -17 6z m3 -172 c0 -12 -5 -7 -19 24 -11 24 -11 24 3 6 9 -11 16 -24 16 -30z
m-10 -81 c7 -9 8 -15 2 -15 -5 0 -12 7 -16 15 -3 8 -4 15 -2 15 2 0 9 -7 16
-15z"/>
<path d="M3567 3973 c-4 -3 -7 -17 -7 -31 0 -18 -3 -22 -12 -15 -7 5 -36 9
-65 7 -37 -2 -53 1 -57 12 -6 16 -36 19 -36 3 0 -6 -9 -8 -22 -3 -17 5 -13 -3
20 -42 22 -27 50 -70 61 -96 l20 -46 -38 -25 c-62 -41 -79 -77 -107 -224 -7
-32 -8 -33 -61 -33 -59 0 -64 -14 -8 -24 19 -4 37 -12 41 -18 5 -7 -1 -9 -20
-4 -14 3 -37 9 -51 12 -25 6 -25 5 -25 -56 0 -62 0 -62 23 -48 37 25 72 28
121 14 33 -10 44 -11 38 -3 -14 17 2 124 26 177 25 56 119 146 194 185 32 17
58 36 58 43 0 7 18 21 40 31 43 19 43 31 -2 31 -18 0 -36 -9 -50 -25 -12 -14
-26 -25 -32 -25 -5 0 3 14 19 30 16 17 24 30 18 30 -6 0 -16 -7 -23 -15 -15
-18 -34 -20 -24 -2 4 6 -7 -1 -24 -17 -19 -18 -32 -24 -32 -16 0 9 -6 8 -20
-5 -20 -18 -21 -18 -14 1 7 19 7 19 -14 0 -17 -14 -22 -16 -22 -5 0 27 28 47
75 55 24 4 55 17 55 23 0 4 -7 17 -16 29 -10 15 -15 37 -12 63 3 37 -1 47 -15
32z m-57 -95 c0 -19 -2 -20 -10 -8 -13 19 -13 30 0 30 6 0 10 -10 10 -22z m90
-112 c0 -2 -7 -7 -16 -10 -8 -3 -12 -2 -9 4 6 10 25 14 25 6z"/>
<path d="M3096 3878 c3 -4 9 -8 15 -8 5 0 9 4 9 8 0 5 -7 9 -15 9 -8 0 -12 -4
-9 -9z"/>
<path d="M3181 3723 c-1 -12 4 -25 9 -28 12 -7 12 2 0 30 -8 19 -9 19 -9 -2z"/>
<path d="M2836 3613 c9 -35 18 -41 62 -41 31 0 32 1 14 12 -11 6 -34 22 -52
34 l-31 24 7 -29z"/>
<path d="M4062 3510 c0 -19 2 -27 5 -17 2 9 2 25 0 35 -3 9 -5 1 -5 -18z"/>
<path d="M2930 3476 c0 -9 7 -12 20 -9 11 3 17 9 14 14 -8 14 -34 10 -34 -5z"/>
<path d="M3070 3375 c0 -78 3 -95 15 -95 12 0 15 17 15 95 0 78 -3 95 -15 95
-12 0 -15 -17 -15 -95z"/>
<path d="M4059 3450 c0 -5 -1 -31 -1 -57 -1 -40 -4 -49 -22 -55 -18 -5 -17 -6
7 -7 27 -1 27 0 27 64 0 36 -2 65 -5 65 -3 0 -5 -4 -6 -10z"/>
<path d="M2948 3442 c-15 -3 -18 -15 -18 -73 0 -52 3 -69 14 -69 26 0 37 27
33 84 -4 62 -5 64 -29 58z"/>
<path d="M3901 3392 c-14 -26 -7 -42 10 -25 6 6 9 19 7 29 -3 17 -5 17 -17 -4z"/>
<path d="M4022 3385 c0 -16 2 -22 5 -12 2 9 2 23 0 30 -3 6 -5 -1 -5 -18z"/>
<path d="M3820 3302 c-19 -15 -45 -27 -57 -26 -21 1 -23 -3 -23 -41 l0 -43 34
32 c48 45 100 106 89 106 -5 0 -24 -13 -43 -28z"/>
<path d="M3470 3291 c0 -5 5 -13 10 -16 6 -3 10 -2 10 4 0 5 -4 13 -10 16 -5
3 -10 2 -10 -4z"/>
<path d="M3911 3235 c0 -17 -5 -35 -10 -40 -10 -11 -20 -202 -11 -208 3 -2 -1
-2 -7 -1 -7 2 -13 0 -13 -4 0 -4 -14 -16 -32 -26 -52 -32 -150 -17 -178 26 -9
15 -16 63 -20 137 -5 106 -6 114 -27 122 -20 7 -23 5 -23 -19 0 -15 7 -72 15
-126 22 -145 16 -240 -20 -330 -7 -16 -6 -17 13 -7 12 7 22 9 22 5 0 -13 -42
-64 -53 -64 -7 0 -6 4 3 10 8 5 11 12 7 16 -4 4 -17 -3 -29 -16 -12 -12 -54
-38 -93 -56 l-71 -33 -3 -45 c-1 -25 1 -46 5 -46 4 0 24 16 46 36 22 19 42 33
45 30 3 -3 -9 -19 -27 -36 -18 -17 -30 -34 -26 -38 4 -4 20 8 35 27 16 19 33
31 39 28 5 -4 19 8 31 26 14 22 21 27 21 14 0 -14 3 -15 19 -5 11 7 19 17 18
22 -1 6 6 10 16 8 9 -2 17 2 17 8 0 6 4 9 9 6 11 -7 37 32 49 75 l10 34 2 -30
c1 -26 2 -27 10 -10 5 11 11 33 15 49 5 23 8 27 16 15 6 -10 9 -5 9 18 0 17 6
38 13 45 7 7 18 24 25 38 11 23 12 20 9 -28 -1 -28 1 -52 6 -52 4 0 7 -9 7
-20 0 -31 89 -187 91 -160 0 8 7 0 16 -19 10 -24 17 -31 22 -22 6 10 10 9 15
-4 3 -9 10 -14 14 -11 5 3 14 -6 21 -20 6 -14 15 -22 21 -19 5 3 17 -6 26 -20
9 -14 19 -24 21 -21 5 5 82 -71 101 -99 11 -17 12 -12 6 35 -4 30 -8 125 -9
210 -2 168 -13 219 -64 295 -15 22 -33 53 -41 69 l-15 29 -3 -41 -3 -42 -45 0
c-37 0 -44 3 -44 20 0 11 -4 20 -9 20 -5 0 -5 18 0 43 5 24 5 83 0 137 -4 52
-9 81 -10 65z m-244 -347 c-3 -8 -6 -5 -6 6 -1 11 2 17 5 13 3 -3 4 -12 1 -19z
m50 -50 c-3 -8 -6 -5 -6 6 -1 11 2 17 5 13 3 -3 4 -12 1 -19z m-74 -23 c-9
-19 -18 -33 -21 -31 -4 5 26 66 33 66 3 0 -3 -16 -12 -35z m-99 -157 c-36 -41
-52 -51 -83 -54 -22 -3 -21 0 14 29 74 62 117 77 69 25z"/>
<path d="M3083 3225 c-10 -10 -9 -16 2 -25 13 -10 15 -8 15 14 0 30 -1 30 -17
11z"/>
<path d="M4170 3185 c0 -40 3 -45 23 -45 12 -1 36 -12 52 -26 l30 -25 -37 17
c-54 25 -68 15 -67 -48 1 -42 3 -48 9 -28 6 18 8 20 9 7 1 -11 10 -21 21 -24
11 -3 20 -13 20 -22 0 -14 -2 -14 -10 -1 -5 8 -10 10 -10 5 0 -14 25 -47 78
-104 l43 -46 -6 65 c-4 36 -20 109 -38 163 -24 79 -36 101 -56 112 -14 7 -25
17 -23 21 2 4 -6 11 -17 16 -19 7 -21 4 -21 -37z m35 -95 c3 -5 11 -8 18 -6 7
1 9 1 6 -1 -4 -2 -5 -12 -2 -22 3 -10 0 -22 -6 -25 -7 -5 -8 -1 -4 10 4 11 -2
23 -18 35 -13 10 -19 19 -12 19 6 0 14 -4 18 -10z m65 -70 c0 -5 -2 -10 -4
-10 -3 0 -8 5 -11 10 -3 6 -1 10 4 10 6 0 11 -4 11 -10z"/>
<path d="M4020 3153 c1 -62 2 -66 15 -48 8 11 19 25 25 32 5 7 10 28 10 48 0
31 -3 35 -25 35 -24 0 -25 -2 -25 -67z"/>
<path d="M3780 3181 c0 -5 -9 -7 -20 -4 -20 5 -21 2 -18 -63 3 -66 4 -69 28
-69 22 0 25 5 28 38 2 21 -1 44 -7 51 -6 6 -8 22 -4 34 3 12 3 22 -1 22 -3 0
-6 -4 -6 -9z"/>
<path d="M3200 3158 c0 -6 3 -8 7 -5 3 4 15 0 25 -10 10 -9 21 -13 26 -9 8 9
-26 36 -45 36 -7 0 -13 -5 -13 -12z"/>
<path d="M3280 3120 c0 -6 5 -19 12 -29 9 -15 16 -17 29 -10 19 10 35 -4 24
-20 -3 -5 -1 -12 5 -16 18 -11 10 25 -12 56 -20 26 -23 28 -30 12 -6 -17 -7
-17 -7 0 -1 18 -21 25 -21 7z"/>
<path d="M3250 3103 c0 -5 12 -20 26 -34 24 -21 26 -22 16 -3 -13 25 -42 50
-42 37z"/>
<path d="M4056 3093 c-4 -9 -2 -21 4 -27 7 -7 10 -2 10 17 0 31 -5 34 -14 10z"/>
<path d="M3093 3015 c0 -33 2 -45 4 -27 2 18 2 45 0 60 -2 15 -4 0 -4 -33z"/>
<path d="M3331 2974 l-12 -31 -97 4 c-113 4 -131 0 -108 -23 9 -8 16 -21 16
-28 0 -20 63 -81 103 -99 47 -22 106 -21 135 3 12 10 22 22 20 27 -1 4 4 27
12 50 14 45 9 76 -12 68 -19 -7 -35 7 -40 35 -5 25 -5 25 -17 -6z"/>
<path d="M2860 2940 c0 -5 5 -10 10 -10 6 0 10 5 10 10 0 6 -4 10 -10 10 -5 0
-10 -4 -10 -10z"/>
<path d="M2863 2896 c4 -10 4 -23 0 -29 -22 -35 -11 -83 34 -150 52 -76 95
-112 171 -142 88 -36 178 -38 240 -7 23 13 42 25 42 28 0 2 -9 0 -19 -6 -49
-26 -174 -3 -252 46 -53 33 -121 114 -163 193 -34 65 -69 109 -53 67z"/>
<path d="M3742 2691 c-19 -43 -59 -87 -108 -118 -18 -11 -18 -12 1 -12 11 -1
30 -8 41 -16 12 -8 24 -12 27 -8 4 3 13 1 21 -6 8 -6 18 -11 22 -10 19 5 91
-14 121 -31 l31 -18 -14 34 c-8 18 -23 49 -34 69 -11 19 -29 51 -40 70 -11 20
-20 41 -20 48 0 7 -6 20 -14 29 -11 15 -15 12 -34 -31z"/>
<path d="M3525 2520 c-3 -5 -1 -18 5 -29 5 -11 10 -29 10 -40 0 -12 7 -21 15
-21 16 0 19 19 9 69 -6 30 -26 41 -39 21z"/>
<path d="M3406 2495 c-9 -26 -7 -32 5 -12 6 10 9 21 6 23 -2 3 -7 -2 -11 -11z"/>
<path d="M2930 2206 c0 -16 7 -27 21 -31 25 -8 39 2 15 11 -9 3 -16 13 -16 21
0 8 4 12 9 8 5 -3 12 -1 16 5 4 6 -5 10 -19 10 -21 0 -26 -5 -26 -24z"/>
<path d="M2990 2198 c0 -24 3 -29 9 -19 7 11 13 12 23 3 11 -9 14 -6 13 16 0
20 -6 28 -22 30 -20 3 -23 -1 -23 -30z"/>
<path d="M3056 2223 c-3 -4 -6 -18 -6 -32 0 -15 4 -21 8 -15 4 6 14 14 22 17
11 4 10 6 -5 7 -19 1 -19 2 -1 9 17 6 17 8 4 14 -9 3 -19 3 -22 0z"/>
<path d="M3902 2205 c-7 -14 -12 -27 -12 -28 0 -1 13 -2 29 -3 27 -1 28 0 17
28 -13 35 -20 35 -34 3z"/>
<path d="M4021 2200 c0 -22 2 -30 7 -22 5 7 16 10 28 6 15 -6 17 -4 7 6 -6 7
-9 20 -5 29 5 13 3 14 -10 3 -13 -10 -17 -10 -21 0 -3 7 -6 -3 -6 -22z"/>
<path d="M3100 2195 c0 -14 5 -25 10 -25 6 0 10 5 10 11 0 8 4 8 14 0 11 -10
15 -8 19 6 4 17 5 17 6 1 1 -24 21 -23 21 1 0 18 -25 31 -62 31 -13 0 -18 -8
-18 -25z"/>
<path d="M3190 2205 c0 -8 7 -15 15 -15 8 0 15 -5 15 -11 0 -6 -7 -8 -17 -4
-14 5 -15 3 -6 -5 8 -8 17 -9 29 -2 12 7 23 6 36 -1 13 -9 21 -8 30 2 11 10 9
12 -7 9 -12 -2 -21 3 -23 15 -3 15 0 18 18 12 15 -5 20 -4 16 4 -10 16 -26 14
-48 -6 -17 -15 -18 -15 -18 0 0 10 -8 17 -20 17 -11 0 -20 -7 -20 -15z"/>
<path d="M3310 2196 c0 -24 2 -27 15 -16 10 9 19 9 28 2 6 -6 17 -11 22 -12 6
-2 16 -5 23 -7 7 -3 19 0 27 7 8 7 15 9 15 4 0 -5 4 -3 9 5 7 11 13 12 23 4 7
-6 20 -11 28 -11 8 -1 39 -3 68 -6 28 -2 55 0 58 5 3 5 13 5 24 -1 19 -10 50
-4 50 10 0 37 -44 56 -56 25 -8 -20 -24 -19 -24 1 0 9 -7 14 -17 12 -22 -4
-29 -28 -9 -28 9 0 16 -4 16 -10 0 -5 -4 -10 -9 -10 -12 0 -41 29 -41 41 0 13
-34 11 -48 -3 -9 -9 -12 -9 -12 3 0 12 -2 12 -9 0 -8 -12 -12 -12 -24 -3 -20
17 -41 11 -47 -11 -7 -26 -24 -26 -28 1 -4 26 -3 26 -37 10 -22 -10 -28 -9
-36 3 -6 10 -9 7 -9 -15z m236 -6 c0 -21 -11 -26 -21 -10 -7 11 2 30 13 30 4
0 8 -9 8 -20z m127 -1 c-4 -13 -9 -17 -15 -11 -11 11 -3 32 12 32 4 0 6 -9 3
-21z"/>
<path d="M3710 2190 c0 -24 4 -30 23 -30 17 0 19 2 8 9 -12 8 -12 12 2 26 22
22 21 25 -8 25 -21 0 -25 -5 -25 -30z"/>
<path d="M3776 2212 c7 -4 14 -16 17 -27 4 -19 5 -19 6 2 0 12 7 24 14 26 6 3
-1 6 -18 6 -16 0 -25 -3 -19 -7z"/>
<path d="M3830 2194 c0 -21 3 -24 13 -15 10 8 17 7 25 -1 9 -9 12 -6 12 15 0
22 -5 27 -25 27 -20 0 -25 -5 -25 -26z"/>
<path d="M3961 2198 c0 -13 3 -17 6 -10 4 10 9 9 24 -4 18 -16 19 -16 19 12 0
20 -3 25 -9 15 -6 -9 -11 -10 -15 -2 -12 19 -26 12 -25 -11z"/>
<path d="M2909 2128 c-6 -21 -5 -39 2 -44 5 -3 9 -1 9 5 0 5 3 16 6 25 3 9 1
16 -5 16 -6 0 -11 -1 -12 -2z"/>
<path d="M2942 2109 c-7 -12 -11 -24 -7 -27 3 -4 10 0 14 7 7 11 10 11 14 0 3
-8 6 -2 6 14 1 32 -9 35 -27 6z"/>
<path d="M2982 2100 c0 -19 2 -27 5 -17 2 9 2 25 0 35 -3 9 -5 1 -5 -18z"/>
<path d="M3016 2103 c9 -36 14 -42 14 -15 0 12 6 22 13 22 8 0 7 4 -3 10 -25
16 -31 11 -24 -17z"/>
<path d="M3936 2104 c-14 -27 -15 -27 -16 -6 0 25 -18 30 -26 7 -4 -8 -10 -12
-15 -9 -10 6 -12 -9 -2 -19 3 -4 12 1 19 11 12 16 13 16 14 0 0 -13 8 -16 35
-15 30 2 34 5 29 22 -11 35 -22 38 -38 9z"/>
<path d="M3989 2114 c-10 -12 -9 -18 3 -30 16 -16 68 -10 68 8 0 6 5 6 14 -1
11 -10 14 -7 12 13 -1 18 -4 22 -13 14 -7 -6 -13 -7 -13 -2 0 16 -58 14 -71
-2z m51 -14 c0 -12 -29 -20 -35 -10 -9 15 4 30 20 23 8 -3 15 -9 15 -13z"/>
<path d="M3080 2095 c0 -21 3 -23 23 -16 33 12 35 41 3 41 -21 0 -26 -5 -26
-25z m40 5 c0 -5 -4 -10 -9 -10 -6 0 -13 5 -16 10 -3 6 1 10 9 10 9 0 16 -4
16 -10z"/>
<path d="M3140 2096 c0 -20 4 -23 22 -18 12 3 17 7 10 10 -18 6 -15 20 6 25
10 3 6 5 -10 6 -23 1 -28 -3 -28 -23z"/>
<path d="M3202 2095 c0 -16 2 -22 5 -12 2 9 2 23 0 30 -3 6 -5 -1 -5 -18z"/>
<path d="M3220 2088 c0 -24 3 -29 9 -19 8 12 12 12 25 2 14 -12 16 -10 16 18
0 26 -4 31 -25 31 -22 0 -25 -4 -25 -32z m40 12 c0 -5 -7 -10 -16 -10 -8 0
-12 5 -9 10 3 6 10 10 16 10 5 0 9 -4 9 -10z"/>
<path d="M3286 2112 c-3 -5 -4 -17 -2 -28 3 -21 37 -26 44 -6 2 6 -3 12 -12
12 -9 0 -16 4 -16 10 0 5 7 6 17 3 11 -4 14 -3 9 5 -8 14 -32 16 -40 4z"/>
<path d="M3340 2089 c0 -22 3 -29 9 -21 7 12 12 12 29 1 18 -11 24 -11 34 0
11 11 10 13 -2 8 -8 -2 -27 7 -42 21 l-28 26 0 -35z"/>
<path d="M3376 2111 c-3 -5 5 -8 19 -8 14 0 22 3 19 8 -3 5 -11 9 -19 9 -8 0
-16 -4 -19 -9z"/>
<path d="M3430 2089 c0 -23 3 -30 9 -20 5 8 16 11 30 6 17 -5 21 -2 21 14 0
23 -15 28 -24 9 -3 -9 -9 -7 -20 6 -15 19 -16 18 -16 -15z"/>
<path d="M3530 2105 c-17 -20 3 -45 36 -45 26 0 30 11 14 41 -13 23 -33 25
-50 4z m33 -21 c-4 -10 -9 -12 -15 -6 -12 12 -1 35 12 27 5 -3 6 -13 3 -21z"/>
<path d="M3600 2090 c0 -26 3 -30 28 -29 19 1 21 3 8 6 -15 4 -16 7 -5 14 10
6 10 9 2 9 -7 0 -13 5 -13 11 0 5 4 8 9 4 5 -3 12 -1 16 5 4 6 -5 10 -19 10
-22 0 -26 -4 -26 -30z"/>
<path d="M3669 2118 c-1 -2 -3 -13 -4 -26 -3 -26 20 -41 37 -24 7 7 16 7 29
-1 14 -9 21 -9 31 2 11 10 9 12 -7 9 -13 -2 -20 3 -20 12 0 8 8 14 18 14 9 -1
17 2 17 7 0 15 -40 10 -46 -6 -7 -16 -44 -21 -44 -5 0 5 7 6 17 3 11 -4 14 -3
9 5 -6 10 -33 17 -37 10z"/>
<path d="M3780 2095 c0 -26 15 -34 23 -12 3 9 7 9 20 -2 15 -12 17 -10 17 15
0 22 -3 26 -10 14 -8 -12 -13 -13 -30 -2 -18 11 -20 10 -20 -13z"/>
<path d="M3851 2093 c0 -25 1 -26 9 -8 12 27 12 35 0 35 -5 0 -10 -12 -9 -27z"/>
<path d="M3073 2000 c2 -21 7 -25 35 -26 22 -1 32 4 32 14 0 13 3 13 18 -1 26
-23 32 -21 32 11 0 21 -2 24 -10 12 -7 -12 -12 -12 -22 -2 -19 19 -48 15 -48
-8 0 -27 -18 -25 -30 3 -10 22 -10 22 -7 -3z"/>
<path d="M3200 1990 c0 -23 5 -30 19 -30 28 0 47 26 31 45 -7 8 -21 15 -31 15
-14 0 -19 -7 -19 -30z m32 -12 c-15 -15 -26 -4 -18 18 5 13 9 15 18 6 9 -9 9
-15 0 -24z"/>
<path d="M3298 1995 c4 -23 22 -36 22 -16 0 5 3 16 6 25 4 11 0 16 -14 16 -15
0 -18 -5 -14 -25z"/>
<path d="M3350 1990 c0 -26 3 -30 28 -29 l27 1 -25 8 c-17 5 -19 8 -7 9 25 1
23 41 -3 41 -16 0 -20 -7 -20 -30z"/>
<path d="M3410 1990 c0 -26 3 -30 28 -29 l27 1 -25 8 c-15 5 -18 8 -9 9 18 1
32 25 22 35 -4 3 -15 6 -25 6 -13 0 -18 -8 -18 -30z"/>
<path d="M3500 1990 c0 -26 3 -30 28 -29 l27 1 -25 8 c-15 5 -18 8 -9 9 18 1
32 25 22 35 -4 3 -15 6 -25 6 -13 0 -18 -8 -18 -30z"/>
<path d="M3636 1998 c7 -26 12 -33 18 -27 2 2 7 14 10 27 6 18 4 22 -14 22
-18 0 -20 -4 -14 -22z"/>
<path d="M3689 2015 c-4 -3 -4 -17 -1 -31 3 -18 7 -22 13 -13 6 10 11 10 21 1
11 -9 14 -6 13 16 0 19 -6 28 -20 30 -12 2 -23 0 -26 -3z m31 -15 c0 -5 -5
-10 -11 -10 -5 0 -7 5 -4 10 3 6 8 10 11 10 2 0 4 -4 4 -10z"/>
<path d="M3760 1994 c-6 -14 -10 -26 -10 -28 0 -1 13 -1 29 2 27 4 29 6 19 28
-14 31 -26 30 -38 -2z"/>
<path d="M3820 1997 c0 -17 4 -26 10 -22 6 4 17 1 25 -5 10 -8 15 -9 15 -2 0
6 -5 14 -10 17 -8 5 -7 11 1 21 7 9 8 14 1 14 -6 0 -14 -5 -18 -11 -4 -8 -9
-7 -15 2 -6 10 -9 5 -9 -14z"/>
<path d="M3886 2012 c7 -4 14 -16 17 -27 4 -19 5 -19 6 2 0 12 7 24 14 26 6 3
-1 6 -18 6 -16 0 -25 -3 -19 -7z"/>
<path d="M3564 1983 c-2 -18 1 -21 10 -14 9 7 16 7 23 0 8 -8 11 -4 10 14 -3
34 -41 35 -43 0z"/>
<path d="M2727 1617 c-3 -8 1 -23 8 -34 14 -17 14 -17 15 2 0 11 -4 26 -9 33
-7 11 -9 11 -14 -1z"/>
<path d="M3353 1593 c9 -2 25 -2 35 0 9 3 1 5 -18 5 -19 0 -27 -2 -17 -5z"/>
<path d="M3458 1593 c6 -2 18 -2 25 0 6 3 1 5 -13 5 -14 0 -19 -2 -12 -5z"/>
<path d="M3513 1593 c9 -2 25 -2 35 0 9 3 1 5 -18 5 -19 0 -27 -2 -17 -5z"/>
<path d="M4285 1580 c-4 -12 -2 -27 4 -33 13 -13 20 -7 23 23 4 30 -18 38 -27
10z"/>
<path d="M3372 1573 c-59 -3 -82 -7 -79 -16 2 -8 27 -10 83 -7 169 10 337 4
378 -13 21 -10 53 -20 70 -23 88 -16 132 -21 139 -17 17 10 -6 21 -70 33 -38
7 -84 20 -103 28 -37 16 -249 23 -418 15z"/>
<path d="M3175 1549 c-49 -11 -107 -24 -128 -28 -45 -10 -56 -18 -34 -27 9 -3
49 3 89 14 40 11 89 23 109 26 21 4 42 13 49 21 7 8 11 15 9 14 -2 0 -44 -10
-94 -20z"/>
<path d="M4350 1460 c0 -5 5 -10 10 -10 6 0 10 5 10 10 0 6 -4 10 -10 10 -5 0
-10 -4 -10 -10z"/>
<path d="M3470 1392 c0 -4 9 -8 20 -8 11 0 20 4 20 8 0 4 -9 8 -20 8 -11 0
-20 -4 -20 -8z"/>
<path d="M2875 1368 c1 -13 9 -24 19 -26 10 -2 15 -10 12 -18 -3 -8 1 -14 9
-14 24 0 17 24 -13 53 -28 27 -29 27 -27 5z"/>
<path d="M2980 1370 c0 -5 -9 -10 -20 -10 -25 0 -26 -15 -2 -24 9 -3 23 -9 30
-12 11 -5 12 -2 4 12 -5 11 -7 25 -5 32 3 6 2 12 -1 12 -3 0 -6 -4 -6 -10z"/>
<path d="M3785 1351 c-12 -12 -138 -15 -182 -6 -31 7 -33 6 -33 -20 0 -27 1
-27 43 -21 23 3 67 9 97 13 30 3 66 14 79 24 13 11 19 19 14 19 -5 0 -13 -4
-18 -9z"/>
<path d="M3830 1345 c7 -8 17 -12 22 -9 6 4 5 10 -3 15 -22 14 -33 10 -19 -6z"/>
<path d="M3027 1335 c-4 -8 -2 -17 3 -20 6 -4 10 3 10 14 0 25 -6 27 -13 6z"/>
<path d="M3050 1340 c0 -5 7 -10 16 -10 8 0 12 5 9 10 -3 6 -10 10 -16 10 -5
0 -9 -4 -9 -10z"/>
<path d="M3121 1336 c-9 -10 -9 -16 -1 -21 12 -7 40 11 40 26 0 14 -26 10 -39
-5z"/>
<path d="M3342 1334 c-16 -11 -41 -15 -80 -14 -75 3 -93 0 -60 -10 15 -4 99
-8 188 -9 128 0 160 3 160 13 0 11 -18 14 -77 13 -53 -2 -78 2 -80 11 -6 16
-24 15 -51 -4z"/>
<path d="M3878 1343 c7 -3 16 -2 19 1 4 3 -2 6 -13 5 -11 0 -14 -3 -6 -6z"/>
<path d="M4030 1340 c0 -5 7 -10 16 -10 8 0 12 5 9 10 -3 6 -10 10 -16 10 -5
0 -9 -4 -9 -10z"/>
<path d="M3505 1269 c-55 -4 -143 -8 -195 -9 -78 -1 -90 -3 -65 -12 17 -5 121
-10 233 -11 160 -2 204 1 211 11 7 11 12 11 28 2 14 -9 39 -10 89 -5 l69 9
-65 7 c-109 12 -200 14 -305 8z m25 -19 c0 -5 -7 -10 -15 -10 -8 0 -15 5 -15
10 0 6 7 10 15 10 8 0 15 -4 15 -10z"/>
<path d="M3138 1253 c7 -3 16 -2 19 1 4 3 -2 6 -13 5 -11 0 -14 -3 -6 -6z"/>
<path d="M3178 1253 c6 -2 18 -2 25 0 6 3 1 5 -13 5 -14 0 -19 -2 -12 -5z"/>
<path d="M3148 1223 c12 -2 32 -2 45 0 12 2 2 4 -23 4 -25 0 -35 -2 -22 -4z"/>
</g>
</svg>
