<?xml version="1.0" standalone="no"?>
<!DOCTYPE svg PUBLIC "-//W3C//DTD SVG 20010904//EN"
 "http://www.w3.org/TR/2001/REC-SVG-20010904/DTD/svg10.dtd">
<svg version="1.0" xmlns="http://www.w3.org/2000/svg"
 width="700.000000pt" height="943.000000pt" viewBox="0 0 700.000000 943.000000"
 preserveAspectRatio="xMidYMid meet">
<metadata>
Created by potrace 1.16, written by Peter Selinger 2001-2019
</metadata>
<g transform="translate(0.000000,943.000000) scale(0.100000,-0.100000)"
fill="#000000" stroke="none">
<path d="M0 4715 l0 -4715 3500 0 3500 0 0 4715 0 4715 -3500 0 -3500 0 0
-4715z m3989 3616 c7 -10 13 -11 29 -2 26 14 187 14 244 1 24 -5 95 -14 158
-20 63 -5 140 -14 170 -19 128 -21 190 -36 190 -43 0 -4 8 -8 18 -8 33 0 72
-25 79 -48 9 -36 -5 -123 -22 -142 -16 -18 -14 -68 4 -115 34 -84 35 -111 39
-700 2 -331 -1 -698 -7 -835 -7 -149 -13 -1165 -16 -2599 l-5 -2354 -48 -71
c-26 -39 -56 -89 -67 -111 -24 -48 -49 -75 -70 -75 -8 0 -15 -4 -15 -8 0 -9
-69 -30 -130 -39 -19 -3 -39 -9 -45 -13 -5 -4 -59 -11 -120 -14 -60 -4 -123
-11 -140 -16 -88 -25 -1331 -18 -1565 10 -47 5 -98 9 -115 9 -16 0 -39 4 -50
9 -22 10 -104 32 -147 40 -43 7 -33 24 10 17 28 -4 32 -3 16 4 -22 10 -40 41
-24 41 6 0 10 5 10 11 0 5 -5 7 -10 4 -5 -3 -15 -3 -22 1 -11 7 41 25 125 43
21 5 40 11 43 14 11 11 -7 27 -30 27 -41 0 -230 61 -250 80 -17 17 -18 22 -7
44 8 14 11 38 8 58 -4 18 -7 67 -8 108 -1 41 -6 80 -11 86 -13 17 28 24 81 14
48 -10 296 -28 486 -37 61 -3 113 -8 118 -12 4 -4 -5 -66 -19 -137 -15 -71
-29 -148 -32 -171 l-4 -41 84 -7 c95 -8 1260 0 1328 9 25 3 108 11 185 16 336
25 375 33 399 91 16 38 22 304 7 314 -14 8 -15 319 -2 343 6 11 12 1184 15
2879 l7 2862 -26 40 c-18 29 -27 63 -34 123 -5 45 -7 86 -5 90 3 4 14 2 24 -4
11 -7 23 -8 27 -4 4 5 2 11 -4 13 -8 3 -13 22 -13 44 0 32 -3 39 -20 39 -11 0
-20 -4 -20 -10 0 -5 5 -10 10 -10 6 0 10 -6 10 -13 0 -11 -13 -11 -69 -2 -37
7 -73 15 -80 19 -24 15 -336 42 -327 28 3 -5 43 -12 90 -15 105 -9 230 -33
294 -58 25 -10 24 -20 -10 -121 -19 -57 -18 -78 6 -78 6 0 28 -17 48 -37 34
-35 37 -43 44 -120 4 -48 2 -108 -4 -145 -14 -80 -22 -539 -22 -1262 0 -495
-2 -567 -15 -563 -8 4 -16 3 -19 -1 -2 -4 -6 -164 -7 -356 -4 -341 -3 -349 16
-356 19 -7 20 -16 20 -233 0 -180 -3 -228 -13 -232 -8 -3 -109 -5 -227 -5
-177 0 -215 -3 -225 -15 -7 -8 -21 -15 -31 -15 -11 0 -19 -4 -19 -9 0 -5 -3
-16 -6 -25 -4 -11 -1 -16 10 -16 9 0 21 -11 28 -25 6 -13 15 -22 20 -19 5 4
23 -6 39 -22 37 -35 41 -89 8 -99 -25 -8 -92 11 -131 37 -14 10 -38 18 -53 18
-27 0 -75 42 -75 66 0 11 -18 14 -70 14 -40 0 -70 -4 -70 -10 0 -5 11 -10 25
-10 35 0 32 -27 -6 -67 -16 -18 -33 -33 -37 -33 -13 0 -81 26 -88 33 -15 15
-38 5 -79 -32 -68 -63 -164 -91 -265 -79 -23 3 -26 -2 -40 -61 -9 -36 -20 -66
-26 -68 -6 -2 -9 -17 -6 -33 2 -16 -1 -53 -8 -82 -6 -29 -18 -82 -26 -118 -8
-36 -22 -94 -30 -130 -18 -75 -27 -118 -49 -215 -9 -38 -22 -97 -30 -130 -8
-33 -21 -91 -30 -130 -28 -127 -33 -149 -49 -215 -8 -36 -33 -148 -56 -250
-22 -102 -45 -201 -49 -220 -5 -19 -17 -71 -26 -115 -9 -44 -20 -98 -25 -120
-5 -22 -16 -70 -25 -107 -8 -38 -22 -96 -30 -131 -8 -35 -15 -72 -15 -83 0
-11 -7 -30 -16 -43 -17 -23 -18 -24 -148 -17 -274 14 -481 32 -573 52 l-23 4
1 648 c0 356 4 665 8 687 6 27 10 -37 11 -190 3 -209 4 -222 12 -135 10 103 5
846 -6 857 -3 3 -6 -90 -7 -208 0 -118 -2 -209 -5 -204 -2 6 -5 250 -7 543 -2
450 0 533 12 537 8 3 121 6 251 6 l237 0 -4 42 c-4 31 -1 46 11 56 20 17 20
35 1 51 -8 7 -15 29 -15 50 0 24 5 40 15 44 8 3 15 2 15 -3 0 -4 20 -18 45
-31 39 -20 45 -27 45 -54 0 -21 -10 -43 -30 -64 -58 -64 -22 -85 52 -32 22 17
51 30 63 30 11 0 36 11 55 25 19 14 41 25 50 25 9 0 31 11 50 25 19 14 40 25
46 25 7 0 29 9 49 21 22 13 44 19 58 15 18 -4 32 3 58 30 57 60 120 85 231 91
l96 6 11 41 c6 23 20 84 30 136 38 183 53 198 41 40 -4 -52 -7 -96 -6 -97 1
-1 79 -3 172 -3 134 -1 178 2 205 14 77 34 104 82 103 181 -1 78 -12 107 -57
148 l-31 27 24 43 c54 95 13 220 -84 257 -17 6 -80 11 -140 10 -158 -2 -168
-1 -161 9 3 5 20 7 39 4 37 -6 35 -9 71 157 9 41 20 93 25 115 20 84 39 172
51 225 13 64 17 83 53 243 14 65 28 133 31 150 3 18 12 59 20 92 7 33 21 96
30 140 9 44 21 98 26 120 5 22 13 63 18 90 5 28 18 93 29 145 11 52 39 192 62
310 22 118 45 236 51 261 6 25 12 109 13 185 2 76 6 146 10 156 9 19 -24 23
-324 35 -395 17 -1281 0 -1430 -26 -30 -6 -86 -15 -125 -20 -114 -16 -139 -23
-157 -42 -22 -22 -23 -33 -3 -25 12 4 15 -3 15 -29 0 -44 -29 -156 -45 -175
-7 -8 -18 -33 -23 -55 -10 -38 -28 -2133 -26 -2920 1 -192 -4 -908 -10 -1590
-6 -682 -10 -1379 -8 -1549 2 -296 3 -310 24 -347 12 -22 29 -39 39 -39 9 0
19 -7 23 -15 3 -8 10 -15 15 -15 5 0 22 -5 37 -10 26 -10 26 -11 9 -30 -15
-16 -16 -25 -7 -43 6 -12 14 -32 17 -44 4 -13 11 -23 16 -23 5 0 9 -5 9 -10 0
-12 -47 15 -70 40 -19 21 -50 78 -50 93 0 7 -18 32 -40 57 -24 27 -40 55 -40
71 0 14 -5 30 -11 36 -7 7 -9 80 -5 229 3 121 8 575 11 1009 2 435 9 999 15
1255 5 256 12 1228 15 2160 3 933 10 1697 15 1700 4 3 11 22 15 43 4 20 11 37
16 37 5 0 9 8 9 18 0 10 4 22 10 28 14 14 16 82 2 96 -7 7 -12 20 -12 30 0 10
-4 18 -10 18 -5 0 -10 16 -10 35 0 19 5 35 10 35 6 0 10 6 10 13 0 33 109 87
174 87 14 0 26 4 26 9 0 5 53 12 118 16 64 4 122 11 128 16 14 12 209 15 822
15 428 -1 524 -3 531 -15z m-1287 -722 c3 -24 33 -48 44 -36 4 4 2 13 -4 19
-18 18 -15 28 8 28 16 0 19 -5 14 -30 -4 -19 -2 -30 5 -30 6 0 11 7 11 15 0
18 41 20 59 3 11 -10 14 -10 18 0 3 6 13 12 23 12 10 0 21 -6 24 -12 5 -10 7
-10 12 0 7 14 44 16 44 2 0 -5 -7 -10 -15 -10 -8 0 -15 -9 -15 -20 0 -14 7
-20 22 -20 21 0 21 -1 6 -17 -14 -13 -20 -14 -32 -4 -11 10 -19 9 -36 -1 -17
-11 -22 -11 -30 2 -7 12 -12 12 -22 2 -16 -16 -55 -16 -61 1 -4 9 -7 9 -15 -1
-5 -7 -13 -12 -18 -11 -37 7 -70 -3 -79 -23 -7 -15 -19 -23 -35 -23 -23 0 -25
4 -28 53 -4 63 8 81 45 74 18 -3 24 -1 19 7 -11 17 0 41 18 41 8 0 16 -10 18
-21z m298 1 c0 -5 -2 -10 -4 -10 -3 0 -8 5 -11 10 -3 6 -1 10 4 10 6 0 11 -4
11 -10z m120 -34 c0 -25 -4 -48 -10 -51 -6 -4 -10 13 -10 44 0 28 5 51 10 51
6 0 10 -20 10 -44z m-644 -5 c-3 -4 12 -5 34 -1 46 8 60 -2 60 -46 0 -36 -21
-50 -51 -34 -13 7 -19 7 -19 0 0 -21 -42 -10 -48 13 -6 22 -6 22 -13 -3 -7
-24 -8 -24 -14 -5 -3 12 -15 26 -26 33 -22 14 -22 12 -9 -22 8 -21 6 -26 -12
-31 -12 -5 -26 -1 -36 9 -13 13 -14 19 -3 40 14 26 66 42 85 27 12 -9 40 12
29 23 -3 3 -2 13 1 23 7 17 8 17 17 0 6 -9 8 -21 5 -26z m720 3 c16 -24 16
-26 -3 -45 -24 -24 -51 -16 -59 18 -5 17 -1 28 12 38 26 20 31 19 50 -11z
m-866 6 c0 -5 -4 -10 -10 -10 -5 0 -10 -7 -10 -15 0 -8 5 -15 10 -15 6 0 10
-4 10 -10 0 -16 -17 -11 -24 6 -8 20 2 54 15 54 5 0 9 -4 9 -10z m680 -20 c4
0 10 7 14 15 3 8 17 15 31 15 22 0 25 -4 25 -39 0 -37 -2 -39 -27 -36 -15 1
-29 8 -31 14 -6 17 -22 13 -23 -6 0 -16 -1 -16 -8 1 -4 11 -5 31 -2 45 4 19 6
21 9 9 2 -10 7 -18 12 -18z m235 -29 c3 -5 1 -12 -5 -16 -5 -3 -10 1 -10 9 0
18 6 21 15 7z m-917 -52 c-2 -6 -8 -10 -13 -10 -5 0 -11 4 -13 10 -2 6 4 11
13 11 9 0 15 -5 13 -11z m1167 -1659 c4 -6 -17 -10 -54 -10 -34 0 -61 4 -61
10 0 6 24 10 54 10 30 0 58 -4 61 -10z m-1018 -45 c13 -3 38 -27 55 -53 29
-42 33 -56 36 -128 3 -68 0 -88 -18 -125 -13 -24 -36 -56 -51 -70 -16 -14 -29
-30 -29 -35 0 -13 104 -218 113 -222 4 -2 7 -17 7 -33 0 -28 -1 -29 -53 -29
-47 0 -56 3 -75 30 -12 16 -22 37 -22 47 0 10 -6 27 -13 38 -35 54 -56 295
-25 295 24 0 58 43 58 75 0 54 -21 83 -63 90 -32 6 -36 9 -26 22 10 11 10 16
1 22 -7 4 -11 18 -10 32 3 21 -1 24 -29 24 -19 0 -33 5 -33 12 0 18 123 24
177 8z m1514 -141 c25 -23 25 -74 -1 -102 -18 -19 -51 -28 -82 -23 -5 0 -8
-28 -8 -64 l0 -65 55 0 c48 0 60 -4 80 -26 33 -35 33 -84 1 -121 -23 -26 -29
-28 -103 -28 l-78 0 -2 214 c0 118 1 221 4 229 8 20 108 10 134 -14z m-1631
-19 c0 -13 -4 -27 -10 -30 -6 -4 -10 8 -10 30 0 22 4 34 10 30 6 -3 10 -17 10
-30z m495 -86 c41 -23 56 -37 79 -79 21 -39 29 -70 17 -70 -6 0 -11 9 -11 21
0 22 -39 67 -85 95 -28 18 -29 18 -22 1 4 -10 7 -21 7 -23 0 -2 5 -4 11 -4 18
0 46 -33 31 -38 -6 -2 -12 -11 -12 -19 0 -10 6 -13 18 -9 10 4 7 -2 -8 -14
-14 -11 -27 -20 -30 -20 -3 0 -6 -11 -6 -25 -1 -18 3 -25 16 -25 10 0 17 7 16
16 0 9 5 19 13 22 11 3 12 0 6 -14 -4 -11 -7 -26 -7 -35 1 -19 -74 -39 -144
-39 -50 0 -55 -12 -22 -47 27 -29 70 -30 109 -2 l29 21 45 -22 c25 -12 45 -26
45 -31 0 -13 -22 -10 -44 6 -42 32 -82 9 -49 -27 18 -21 18 -21 -5 -15 -13 3
-28 -1 -38 -10 -18 -19 -10 -31 10 -14 10 8 16 9 21 1 4 -6 19 0 41 16 19 15
34 21 34 14 0 -17 -56 -70 -74 -70 -9 0 -16 -5 -16 -11 0 -20 -131 -6 -159 16
-31 27 -71 90 -71 114 0 11 -4 23 -10 26 -16 10 -12 126 6 181 39 116 156 168
259 113z m448 -6 c20 -10 27 -18 19 -21 -8 -2 -19 1 -25 7 -28 28 -165 4 -189
-33 -4 -6 -10 -7 -14 -3 -8 8 24 34 66 54 37 17 106 15 143 -4z m-952 -34 c-9
-23 -10 -22 -10 11 -1 23 2 31 9 24 7 -7 7 -19 1 -35z m-14 -186 c-3 -10 -5
-2 -5 17 0 19 2 27 5 18 2 -10 2 -26 0 -35z m630 5 c-3 -8 -6 -5 -6 6 -1 11 2
17 5 13 3 -3 4 -12 1 -19z m-37 -7 c0 -12 -20 -25 -27 -18 -7 7 6 27 18 27 5
0 9 -4 9 -9z m377 -97 c-3 -3 -12 -4 -19 -1 -8 3 -5 6 6 6 11 1 17 -2 13 -5z
m592 -1045 c17 -6 31 -16 31 -22 0 -7 -4 -7 -12 1 -7 7 -32 12 -57 13 -38 1
-42 2 -21 9 14 4 25 8 26 9 1 1 15 -4 33 -10z m263 2 c10 -1 41 -62 34 -68 -8
-9 -27 8 -36 33 -8 19 -17 24 -45 24 -21 0 -34 4 -30 10 5 8 30 8 77 1z m141
2 c4 -3 2 -12 -5 -20 -8 -10 -8 -17 0 -25 7 -7 12 -36 12 -65 0 -40 -4 -53
-15 -53 -17 0 -20 -25 -5 -35 15 -9 12 -35 -4 -35 -11 0 -15 21 -18 93 -2 50
-1 97 2 102 2 6 3 18 2 28 -3 16 18 24 31 10z m113 -11 c24 -22 40 -46 62 -94
9 -21 21 -38 25 -38 5 0 7 34 4 75 -5 69 -4 75 14 75 18 0 19 -8 19 -116 0
-104 -2 -115 -17 -112 -21 4 -91 128 -85 148 3 9 -1 11 -11 7 -9 -3 -18 -1
-21 6 -3 7 -2 -1 2 -18 8 -35 7 -143 -1 -151 -18 -19 -27 17 -26 113 0 95 3
123 13 123 2 0 12 -8 22 -18z m205 -40 c-1 -33 2 -52 9 -52 12 0 53 -87 47
-103 -1 -5 -14 12 -27 39 l-25 48 -3 -52 c-2 -29 -7 -52 -13 -52 -5 0 -9 50
-9 116 0 86 3 115 12 112 8 -3 11 -23 9 -56z m50 16 c-23 -38 -47 -51 -28 -16
21 39 28 48 39 48 5 0 1 -15 -11 -32z m-491 -64 c0 -8 -5 -12 -10 -9 -6 4 -8
11 -5 16 9 14 15 11 15 -7z m-4 -75 c3 -6 2 -15 -4 -21 -6 -6 -11 -2 -15 11
-5 22 7 29 19 10z m19 -49 c3 -5 1 -10 -4 -10 -6 0 -11 5 -11 10 0 6 2 10 4
10 3 0 8 -4 11 -10z m565 -1914 c0 -21 -6 -36 -15 -40 -8 -3 -15 -16 -15 -30
0 -18 -7 -26 -27 -31 -17 -4 -29 -2 -31 4 -7 21 -22 11 -22 -15 0 -19 4 -25
15 -20 9 3 15 0 15 -9 0 -22 -16 -18 -37 8 -10 13 -24 22 -31 19 -19 -6 -14
-22 8 -22 16 0 20 -7 20 -30 0 -16 5 -30 10 -30 6 0 10 7 10 15 0 22 17 18 23
-5 3 -11 12 -20 21 -20 19 0 22 26 4 33 -15 6 21 38 37 33 6 -1 11 -31 12 -66
1 -36 7 -66 14 -70 37 -24 -141 -55 -399 -71 -345 -20 -1436 -18 -1457 3 -4 3
3 53 16 110 12 56 26 126 32 153 5 28 14 55 19 62 7 8 151 11 566 11 510 0
676 5 1052 32 176 12 160 15 160 -24z m-2379 -144 c2 -23 -2 -47 -9 -54 -9 -9
-12 4 -12 58 1 75 17 72 21 -4z m239 48 c0 -5 -7 -10 -15 -10 -8 0 -15 5 -15
10 0 6 7 10 15 10 8 0 15 -4 15 -10z m-312 -64 l-1 -41 -4 38 c-5 44 -33 53
-34 10 0 -27 -1 -27 -9 -5 -7 16 -5 27 7 42 24 28 43 8 41 -44z m172 -3 c0
-18 5 -33 10 -33 6 0 10 13 10 29 0 17 5 33 10 36 14 9 13 -78 -2 -93 -14 -14
-38 2 -38 24 0 8 -4 14 -10 14 -5 0 -10 -6 -10 -14 0 -15 -27 -25 -47 -19 -7
3 -13 12 -13 20 0 9 6 13 14 10 23 -9 41 19 26 38 -10 12 -16 13 -26 4 -11 -9
-14 -7 -14 9 0 26 15 31 57 18 28 -9 33 -15 33 -43z m100 37 c0 -6 -4 -18 -9
-28 -6 -9 -13 -30 -17 -47 l-7 -30 -8 28 c-4 16 -6 35 -3 43 2 8 6 21 9 29 5
17 35 21 35 5z m104 -6 c12 -4 16 -20 16 -55 0 -27 -4 -49 -10 -49 -5 0 -10
18 -10 41 0 52 -24 48 -28 -4 -4 -51 -22 -36 -22 18 0 49 16 63 54 49z m-69
-51 c-1 -21 -6 -40 -11 -43 -10 -6 -18 55 -10 77 10 26 23 5 21 -34z m179 41
c11 -4 16 -19 16 -50 0 -38 -3 -44 -25 -50 -33 -8 -48 -2 -64 30 -27 50 17 92
73 70z m66 -89 c0 -8 -7 -15 -15 -15 -16 0 -20 12 -8 23 11 12 23 8 23 -8z"/>
<path d="M2226 8214 c-11 -28 -6 -39 9 -20 8 11 15 23 15 28 0 14 -18 9 -24
-8z"/>
<path d="M4805 8190 c3 -5 10 -10 16 -10 5 0 9 5 9 10 0 6 -7 10 -16 10 -8 0
-12 -4 -9 -10z"/>
<path d="M4621 5430 l0 -360 29 0 29 0 3 351 c2 211 -1 354 -6 360 -6 5 -20 9
-33 9 l-23 0 1 -360z"/>
<path d="M4248 5493 c-2 -4 -1 -24 2 -43 l7 -35 11 28 c15 36 41 35 49 -3 3
-16 9 -30 13 -30 9 0 19 70 11 74 -16 9 -89 16 -93 9z"/>
<path d="M4480 5361 c0 -120 1 -129 20 -134 15 -4 20 0 20 15 0 12 -5 18 -13
15 -9 -3 -13 17 -15 79 -2 84 1 91 27 75 10 -7 12 -25 6 -80 -5 -52 -4 -71 5
-71 16 0 4 -75 -18 -114 -10 -16 -42 -42 -72 -58 l-55 -29 40 5 c49 7 85 32
107 77 14 27 17 65 19 189 l1 155 -36 2 -36 2 0 -128z"/>
<path d="M4256 5394 c-3 -9 -6 -45 -6 -81 0 -60 1 -64 17 -52 15 13 16 12 11
-8 -5 -18 -2 -23 13 -23 10 0 19 -4 19 -10 0 -5 6 -10 13 -10 10 0 13 22 14
88 0 54 -2 66 -4 30 -2 -31 -10 -61 -17 -67 -10 -8 -12 -4 -8 22 4 31 4 31
-12 12 -14 -19 -15 -17 -16 38 0 31 4 57 10 57 6 0 10 5 10 10 0 16 -37 11
-44 -6z"/>
<path d="M4258 5214 c-15 -14 -8 -46 17 -78 28 -37 90 -74 102 -62 4 5 1 11
-7 14 -14 5 -59 48 -86 84 -7 8 -14 23 -15 32 -2 10 -7 14 -11 10z"/>
<path d="M4460 5190 c-6 -11 -7 -20 -2 -20 6 0 12 9 15 20 3 11 3 20 1 20 -2
0 -8 -9 -14 -20z"/>
<path d="M4340 5195 c0 -2 9 -9 20 -15 16 -9 18 -8 14 5 -5 13 -34 22 -34 10z"/>
<path d="M4393 5159 c-17 -6 -21 -13 -16 -26 7 -17 8 -17 11 0 3 12 9 16 23
12 10 -4 19 -2 19 4 0 16 -13 19 -37 10z"/>
<path d="M4490 5160 c0 -5 5 -10 10 -10 6 0 10 5 10 10 0 6 -4 10 -10 10 -5 0
-10 -4 -10 -10z"/>
<path d="M4395 5100 c-3 -5 -1 -10 4 -10 6 0 11 5 11 10 0 6 -2 10 -4 10 -3 0
-8 -4 -11 -10z"/>
<path d="M3823 4802 c-17 -15 -55 -47 -83 -71 -54 -46 -90 -104 -90 -145 0
-14 -4 -28 -10 -31 -5 -3 -10 -15 -10 -27 0 -11 -13 -33 -30 -48 -35 -32 -38
-44 -11 -37 14 3 18 1 14 -9 -8 -21 6 -17 42 10 18 14 36 21 41 16 5 -4 32
-11 60 -15 51 -7 52 -6 52 22 0 15 -9 40 -19 54 -23 32 -15 43 17 23 32 -22
43 -11 37 38 -4 29 -3 39 5 34 7 -4 12 -17 12 -28 0 -12 10 -32 22 -45 21 -23
21 -23 3 -58 -13 -22 -22 -30 -27 -23 -4 7 -2 18 4 25 5 7 8 18 6 25 -7 21
-30 -32 -24 -55 5 -21 68 -57 99 -57 21 0 61 47 47 55 -6 4 -19 0 -29 -9 -23
-21 -50 -20 -58 1 -5 12 3 25 24 42 27 21 42 25 105 25 l73 1 3 30 c6 50 18
49 32 -2 17 -63 26 -73 65 -73 18 0 43 -9 56 -20 21 -17 22 -21 9 -30 -12 -8
-12 -10 6 -10 11 0 25 -5 32 -12 21 -21 26 2 5 25 -11 12 -26 32 -32 45 -6 12
-18 22 -25 22 -20 0 -25 21 -19 69 5 37 9 41 33 41 55 0 78 74 34 111 -20 16
-17 47 5 54 19 6 36 33 27 42 -7 8 -58 -21 -69 -38 -8 -12 -4 -25 15 -50 36
-48 42 -74 22 -93 -20 -20 -44 -14 -102 25 -23 16 -48 29 -55 29 -7 0 -17 4
-22 9 -6 5 -49 29 -96 53 -47 24 -99 54 -116 66 -39 28 -41 27 -80 -6z m47
-51 c0 -6 -13 -25 -30 -43 -26 -28 -30 -30 -30 -12 0 11 9 30 20 42 22 23 40
29 40 13z m-130 -156 c14 -17 5 -36 -15 -29 -8 4 -18 -1 -21 -10 -8 -21 -24
-21 -24 1 0 17 27 53 40 53 4 0 13 -7 20 -15z m-2 -113 c2 -7 -3 -12 -12 -12
-9 0 -16 7 -16 16 0 17 22 14 28 -4z"/>
<path d="M2754 4803 c3 -8 6 -17 6 -19 0 -2 5 -4 12 -4 6 0 20 -7 30 -17 17
-15 18 -15 18 3 -1 12 -14 25 -36 36 -30 14 -35 14 -30 1z"/>
<path d="M3190 4800 c-19 -11 -41 -19 -49 -20 -8 0 -29 -11 -47 -25 -18 -14
-41 -25 -52 -25 -10 0 -27 -9 -37 -20 -10 -11 -37 -25 -59 -31 -23 -6 -50 -19
-61 -29 -11 -9 -29 -22 -41 -28 -23 -12 -64 -5 -64 10 0 5 -5 6 -11 3 -15 -10
21 -34 52 -35 19 0 28 -7 33 -22 11 -43 6 -67 -16 -79 -13 -7 -38 -29 -57 -51
-24 -28 -38 -37 -52 -33 -13 4 -19 2 -19 -8 0 -19 40 -30 57 -16 27 23 89 49
116 49 40 0 87 27 87 50 0 18 -2 17 -25 -4 -23 -21 -123 -51 -135 -40 -8 9 24
23 77 34 49 11 52 13 64 56 12 40 32 63 28 32 -5 -45 -1 -48 65 -48 36 0 67 4
70 9 4 5 25 -9 49 -30 40 -39 41 -41 23 -55 -27 -19 -40 -18 -61 6 -19 21 -55
27 -55 10 0 -16 52 -59 72 -60 22 0 104 36 113 49 9 15 -4 71 -17 71 -6 0 -7
-13 -3 -32 l7 -33 -21 27 c-22 28 -28 58 -11 58 6 0 19 14 29 31 20 32 40 24
22 -9 -14 -26 -4 -33 26 -21 34 13 39 5 19 -26 -10 -15 -16 -38 -14 -53 3 -25
6 -27 43 -24 22 2 50 8 62 14 17 9 27 7 49 -11 32 -25 44 -27 44 -6 0 8 7 15
15 15 22 0 18 13 -11 41 -29 27 -46 63 -65 134 -10 40 -25 63 -76 113 -55 55
-97 83 -121 82 -4 -1 -23 -9 -42 -20z m80 -100 c0 -32 -14 -40 -24 -14 -10 27
-7 44 9 44 10 0 15 -10 15 -30z m140 -113 c8 -14 11 -29 6 -34 -4 -4 -12 0
-17 9 -5 10 -16 15 -24 12 -16 -7 -19 4 -9 31 9 21 26 14 44 -18z m-22 -99
c-6 -18 -28 -21 -28 -4 0 9 7 16 16 16 9 0 14 -5 12 -12z"/>
<path d="M2776 4713 c-6 -14 -5 -15 5 -6 7 7 10 15 7 18 -3 3 -9 -2 -12 -12z"/>
<path d="M4120 4483 c0 -5 10 -18 23 -29 l22 -19 -20 25 c-11 14 -21 27 -22
29 -2 2 -3 0 -3 -6z"/>
<path d="M3142 4458 c6 -18 28 -21 28 -4 0 9 -7 16 -16 16 -9 0 -14 -5 -12
-12z"/>
<path d="M2740 4450 c0 -5 5 -10 10 -10 6 0 10 5 10 10 0 6 -4 10 -10 10 -5 0
-10 -4 -10 -10z"/>
<path d="M3910 4450 c0 -5 7 -10 15 -10 8 0 15 5 15 10 0 6 -7 10 -15 10 -8 0
-15 -4 -15 -10z"/>
<path d="M4228 4433 c7 -3 16 -2 19 1 4 3 -2 6 -13 5 -11 0 -14 -3 -6 -6z"/>
<path d="M2348 4173 c-15 -4 -17 -19 -17 -113 l0 -109 29 -6 c53 -12 70 16 19
34 -27 9 -30 14 -27 43 2 25 8 34 26 36 29 4 28 20 -3 32 -14 5 -25 15 -25 22
0 23 18 41 34 35 23 -9 30 10 7 22 -11 6 -21 10 -23 10 -2 -1 -11 -3 -20 -6z"/>
<path d="M2483 4056 c-1 -68 2 -116 7 -116 6 0 10 34 10 75 0 41 4 75 9 75 4
0 29 -31 55 -70 25 -38 49 -70 54 -70 11 0 8 204 -3 210 -6 3 -12 -25 -15 -70
l-5 -75 -42 60 c-23 33 -48 68 -55 78 -11 16 -13 1 -15 -97z"/>
<path d="M2734 4163 c-8 -5 -12 -47 -13 -115 l-1 -108 55 0 c42 0 55 3 55 15
0 11 -11 15 -40 15 l-40 0 0 40 0 40 41 0 c52 0 48 23 -5 30 -20 3 -37 8 -36
13 0 4 0 16 0 27 0 17 7 20 41 20 28 0 39 4 37 13 -5 14 -77 21 -94 10z"/>
<path d="M2936 4162 c-2 -4 -6 -54 -7 -112 -3 -92 -1 -105 14 -108 14 -3 17 4
17 37 0 48 21 48 40 0 11 -26 37 -49 54 -49 13 0 4 25 -19 56 -30 39 -31 46
-5 69 29 26 26 69 -6 94 -26 21 -78 28 -88 13z m70 -43 c21 -24 9 -54 -22 -54
-20 0 -31 33 -20 61 7 19 20 18 42 -7z"/>
<path d="M3189 4153 c-103 -63 -60 -223 59 -223 35 0 77 30 98 71 20 39 12 49
-42 49 -32 0 -44 -4 -44 -15 0 -9 10 -15 26 -15 33 0 29 -29 -8 -49 -38 -22
-78 -5 -103 42 l-20 37 20 37 c28 52 74 65 116 34 28 -21 49 -21 49 0 0 16
-64 49 -95 49 -16 0 -42 -8 -56 -17z"/>
<path d="M2252 4000 c0 -14 2 -19 5 -12 2 6 2 18 0 25 -3 6 -5 1 -5 -13z"/>
<path d="M2252 2905 c0 -16 2 -22 5 -12 2 9 2 23 0 30 -3 6 -5 -1 -5 -18z"/>
<path d="M2254 2770 c0 -52 1 -74 3 -47 2 26 2 68 0 95 -2 26 -3 4 -3 -48z"/>
<path d="M4636 1303 c-3 -10 -9 -25 -12 -33 -5 -13 -4 -13 5 -1 8 12 14 13 36
3 35 -16 35 -16 35 13 0 15 -6 25 -14 25 -8 0 -21 3 -29 6 -8 3 -17 -2 -21
-13z"/>
<path d="M2415 1170 c-3 -5 1 -10 10 -10 9 0 13 5 10 10 -3 6 -8 10 -10 10 -2
0 -7 -4 -10 -10z"/>
<path d="M2867 7563 c-13 -13 -7 -31 13 -36 16 -4 20 0 20 19 0 23 -18 32 -33
17z"/>
<path d="M2796 7551 c-4 -7 -5 -15 -2 -18 9 -9 19 4 14 18 -4 11 -6 11 -12 0z"/>
<path d="M2620 7540 c0 -5 5 -10 10 -10 6 0 10 5 10 10 0 6 -4 10 -10 10 -5 0
-10 -4 -10 -10z"/>
<path d="M3163 7573 c-18 -6 -16 -30 2 -37 9 -3 18 1 22 10 7 18 -7 33 -24 27z"/>
<path d="M3032 7553 c2 -10 10 -18 18 -18 8 0 16 8 18 18 2 12 -3 17 -18 17
-15 0 -20 -5 -18 -17z"/>
<path d="M2725 5414 c-14 -15 -25 -31 -25 -35 0 -5 25 -10 55 -10 30 -1 61 -2
68 -3 18 -1 10 44 -11 60 -27 21 -61 16 -87 -12z"/>
<path d="M2798 5323 c7 -3 16 -2 19 1 4 3 -2 6 -13 5 -11 0 -14 -3 -6 -6z"/>
<path d="M2727 5179 c7 -7 15 -10 18 -7 3 3 -2 9 -12 12 -14 6 -15 5 -6 -5z"/>
<path d="M2765 5110 c-3 -5 1 -10 9 -10 9 0 16 5 16 10 0 6 -4 10 -9 10 -6 0
-13 -4 -16 -10z"/>
<path d="M3020 1932 c-20 -16 -21 -21 -9 -39 7 -12 23 -26 36 -32 28 -13 32
-51 5 -51 -10 0 -23 5 -30 12 -20 20 -26 -1 -7 -22 23 -25 47 -26 68 -2 25 27
21 49 -13 74 -38 27 -41 53 -5 44 27 -7 32 3 13 22 -17 17 -32 15 -58 -6z"/>
<path d="M3501 1866 c0 -47 5 -86 10 -86 8 0 11 31 13 137 1 14 -5 28 -11 30
-10 4 -13 -17 -12 -81z"/>
<path d="M3165 1921 c-7 -12 12 -24 25 -16 11 7 4 25 -10 25 -5 0 -11 -4 -15
-9z"/>
<path d="M3118 1898 c-7 -19 7 -125 14 -108 12 28 18 87 12 104 -7 19 -20 21
-26 4z"/>
<path d="M4476 1903 c-4 -4 -17 -8 -29 -8 -12 0 -23 -7 -25 -17 -2 -10 1 -18
7 -18 6 0 11 5 11 10 0 6 4 10 9 10 6 0 12 -17 14 -37 l4 -38 1 39 c2 29 5 37
17 32 9 -3 15 0 15 9 0 17 -14 27 -24 18z"/>
<path d="M4540 1900 c0 -5 7 -10 15 -10 8 0 15 -5 15 -11 0 -7 -10 -9 -25 -5
-21 5 -25 3 -25 -15 0 -19 21 -49 35 -49 4 0 13 7 22 15 14 14 13 15 -11 9
-20 -5 -26 -2 -26 9 0 10 11 17 31 19 l31 3 -20 23 c-20 23 -42 29 -42 12z"/>
<path d="M3973 1882 c-15 -2 -23 -10 -23 -23 0 -24 -11 -24 -33 1 -19 22 -57
26 -75 8 -17 -17 -15 -63 2 -77 23 -19 69 -9 82 18 l12 24 4 -24 c4 -32 22
-27 26 8 2 15 11 36 19 46 19 20 16 24 -14 19z m-75 -34 c18 -18 14 -36 -9
-43 -27 -9 -43 7 -34 34 7 23 25 27 43 9z"/>
<path d="M4036 1881 c-15 -6 -19 -20 -21 -79 -3 -57 0 -72 11 -72 8 0 14 10
14 25 0 18 5 25 19 25 11 0 27 10 35 22 l16 22 25 -24 c20 -19 30 -22 42 -14
29 18 38 41 27 71 -12 36 -40 41 -70 12 l-24 -23 -16 22 c-16 23 -27 25 -58
13z m147 -29 c13 -14 14 -21 5 -30 -26 -26 -54 -7 -43 28 8 25 17 25 38 2z
m-95 -18 c2 -13 -4 -24 -13 -28 -24 -9 -35 1 -35 30 0 21 4 25 23 22 13 -2 23
-11 25 -24z"/>
<path d="M4284 1876 c-19 -49 21 -105 52 -75 11 11 12 19 5 23 -6 4 -11 2 -11
-3 0 -6 -7 -11 -15 -11 -8 0 -15 7 -15 15 0 9 9 15 25 15 26 0 29 7 19 34 -8
20 -53 21 -60 2z m43 -12 c-3 -3 -12 -4 -19 -1 -8 3 -5 6 6 6 11 1 17 -2 13
-5z"/>
<path d="M3169 1875 c-2 -19 3 -90 7 -94 18 -19 26 62 9 85 -8 11 -15 15 -16
9z"/>
<path d="M3226 1873 c-3 -4 -6 -26 -6 -50 0 -56 23 -54 28 1 4 48 26 43 30 -7
4 -48 20 -48 24 1 2 20 8 37 13 37 6 0 11 -17 13 -37 4 -48 32 -54 32 -7 0 54
-13 66 -74 67 -30 0 -57 -2 -60 -5z"/>
<path d="M3384 1855 c-16 -25 -16 -27 3 -53 24 -31 57 -32 88 -1 19 18 19 21
3 47 -24 39 -71 42 -94 7z m66 -10 c16 -20 6 -45 -19 -45 -25 0 -34 14 -26 40
8 24 28 26 45 5z"/>
<path d="M3555 1860 c-21 -23 -14 -65 13 -79 9 -5 32 -6 50 -4 30 5 32 7 32
48 0 30 -5 45 -16 49 -30 11 -61 6 -79 -14z m63 -33 c3 -23 0 -27 -22 -27 -21
0 -26 5 -26 23 0 13 3 27 7 31 15 14 38 0 41 -27z"/>
<path d="M3748 1866 c-21 -15 -24 -56 -6 -74 17 -17 68 -15 68 2 0 9 -8 12
-25 8 -17 -3 -27 1 -31 12 -8 22 15 49 38 43 11 -3 18 0 18 9 0 18 -39 18 -62
0z"/>
<path d="M2741 1852 c-11 -20 2 -42 25 -42 19 0 24 28 8 45 -19 19 -21 19 -33
-3z"/>
</g>
</svg>
